<svg xmlns="http://www.w3.org/2000/svg" viewBox="0 0 400 400" width="900" height="900" role="img" aria-label="Даңғыра аспабы"><rect width="400" height="400" fill="#f4eee5"/><circle cx="200" cy="196" r="150" fill="#ffffff" opacity="0.55"/>
  <circle cx="200" cy="192" r="108" fill="#b07a4a" stroke="#7a4e2c" stroke-width="6"/>
  <circle cx="200" cy="192" r="86" fill="#e8d9c0" stroke="#7a4e2c" stroke-width="4"/>
  <circle cx="200" cy="192" r="70" fill="none" stroke="#cbb392" stroke-width="3"/>
  <g fill="none" stroke="#b9a488" stroke-width="3" opacity="0.9">
    <circle cx="200" cy="286" r="12"/><circle cx="132" cy="248" r="10"/>
    <circle cx="268" cy="248" r="10"/><circle cx="118" cy="168" r="10"/>
    <circle cx="282" cy="168" r="10"/><circle cx="200" cy="108" r="12"/>
  </g>
  <g stroke="#8a5a33" stroke-width="3" opacity="0.75">
    <line x1="200" y1="300" x2="200" y2="286"/><line x1="122" y1="250" x2="132" y2="248"/>
    <line x1="268" y1="248" x2="278" y2="250"/><line x1="108" y1="168" x2="118" y2="168"/>
    <line x1="282" y1="168" x2="292" y2="168"/><line x1="200" y1="96" x2="200" y2="108"/>
  </g>
  <ellipse cx="200" cy="192" rx="86" ry="86" fill="none" stroke="#1f6f6b" stroke-width="4" stroke-dasharray="14 22" opacity="0.85"/>
  <rect x="184" y="298" width="32" height="52" rx="14" fill="#8a5a33" stroke="#7a4e2c" stroke-width="4"/>
  <circle cx="200" cy="352" r="9" fill="#c89a3c" stroke="#8a6a1f" stroke-width="3"/>
</svg>